<?xml version="1.0" standalone="no"?>
<!DOCTYPE svg PUBLIC "-//W3C//DTD SVG 1.1//EN" "http://www.w3.org/Graphics/SVG/1.1/DTD/svg11.dtd" >
<svg xmlns="http://www.w3.org/2000/svg">
<metadata>
Created by FontForge 20120731 at Thu Dec  1 15:47:53 2016
 By admin
</metadata>
<defs>
<font id="iconfont" horiz-adv-x="1024" >
  <font-face 
    font-family="iconfont"
    font-weight="500"
    font-stretch="normal"
    units-per-em="1024"
    panose-1="2 0 6 3 0 0 0 0 0 0"
    ascent="896"
    descent="-128"
    x-height="792"
    bbox="-0.181818 -212 1126.77 896"
    underline-thickness="0"
    underline-position="0"
    unicode-range="U+0078-E6EA"
  />
<missing-glyph 
 />
    <glyph glyph-name=".notdef" 
 />
    <glyph glyph-name=".notdef" 
 />
    <glyph glyph-name=".null" horiz-adv-x="0" 
 />
    <glyph glyph-name="nonmarkingreturn" horiz-adv-x="341" 
 />
    <glyph glyph-name="x" unicode="x" horiz-adv-x="1001" 
d="M281 543q-27 -1 -53 -1h-83q-18 0 -36.5 -6t-32.5 -18.5t-23 -32t-9 -45.5v-76h912v41q0 16 -0.5 30t-0.5 18q0 13 -5 29t-17 29.5t-31.5 22.5t-49.5 9h-133v-97h-438v97zM955 310v-52q0 -23 0.5 -52t0.5 -58t-10.5 -47.5t-26 -30t-33 -16t-31.5 -4.5q-14 -1 -29.5 -0.5
t-29.5 0.5h-32l-45 128h-439l-44 -128h-29h-34q-20 0 -45 1q-25 0 -41 9.5t-25.5 23t-13.5 29.5t-4 30v167h911zM163 247q-12 0 -21 -8.5t-9 -21.5t9 -21.5t21 -8.5q13 0 22 8.5t9 21.5t-9 21.5t-22 8.5zM316 123q-8 -26 -14 -48q-5 -19 -10.5 -37t-7.5 -25t-3 -15t1 -14.5
t9.5 -10.5t21.5 -4h37h67h81h80h64h36q23 0 34 12t2 38q-5 13 -9.5 30.5t-9.5 34.5q-5 19 -11 39h-368zM336 498v228q0 11 2.5 23t10 21.5t20.5 15.5t34 6h188q31 0 51.5 -14.5t20.5 -52.5v-227h-327z" />
    <glyph glyph-name="cancel" unicode="&#xe601;" 
d="M874 572l-91 90l-271 -271l-272 271l-90 -90l271 -272l-271 -271l90 -91l272 272l271 -272l91 91l-272 271z" />
    <glyph glyph-name="xiaoxi" unicode="&#xe649;" 
d="M512 -84h-85l-235 -128v235q-90 63 -141 150.5t-51 190.5q0 91 40.5 174t109 143t163.5 95.5t199 35.5t199 -35.5t163.5 -95.5t109 -143t40.5 -174t-40.5 -174t-109 -143t-163.5 -95.5t-199 -35.5v0zM512 748q-122 0 -225 -51.5t-163 -140t-60 -192.5q0 -96 52 -181.5
t140 -138.5v-142l171 78h85q122 0 225 51.5t163 140t60 192.5t-60 192.5t-163 140t-225 51.5v0zM768 300q-27 0 -45.5 19t-18.5 45.5t18.5 45t45.5 18.5t45.5 -18.5t18.5 -45t-18.5 -45.5t-45.5 -19v0zM512 300q-27 0 -45.5 19t-18.5 45.5t18.5 45t45.5 18.5t45.5 -18.5
t18.5 -45t-18.5 -45.5t-45.5 -19v0zM256 300q-27 0 -45.5 19t-18.5 45.5t18.5 45t45.5 18.5t45.5 -18.5t18.5 -45.5t-18.5 -45.5t-45.5 -18.5v0z" />
    <glyph glyph-name="shouye" unicode="&#xe61d;" horiz-adv-x="1025" 
d="M996 132q-12 0 -21 10l-428 481q-14 16 -35 16v0q-20 0 -35 -16l-427 -481q-8 -9 -20 -10t-20.5 7t-9.5 19.5t7 20.5l427 481q32 36 78 36v0q46 0 78 -36l428 -481q8 -8 7 -20t-10 -20q-8 -7 -19 -7zM853 186v-284q0 -24 -16.5 -40.5t-40.5 -16.5h-113v227q0 48 -33.5 81
t-80.5 33h-114q-47 0 -80.5 -33t-33.5 -81v-227h-113q-24 0 -40.5 16.5t-16.5 40.5v284h-57v-284q0 -47 33 -80.5t81 -33.5h113h57v57v227q0 24 17 40.5t40 16.5h114q23 0 40 -16.5t17 -40.5v-227v-57h57h113q48 0 81 33.5t33 80.5v284h-57z" />
    <glyph glyph-name="wode" unicode="&#xe612;" 
d="M513 673q36 -1 70 -19q63 -34 63 -120q0 -43 -7 -76t-13.5 -47t-19.5 -35q-11 -18 -16.5 -29t-11 -31.5t-5.5 -42.5q0 -17 7.5 -32.5t17 -25.5t29.5 -21.5t33 -18t39 -17.5q25 -11 38 -17t36.5 -18.5t36 -22t29.5 -25.5t25.5 -32t15 -38t6.5 -46v-69q0 -16 11 -27
t26.5 -11t26.5 11t11 27v69q0 34 -8.5 65t-20.5 53.5t-33.5 44.5t-38.5 35t-45 28.5t-43.5 22.5t-42.5 19q-46 20 -62 30q-19 12 -19 16q0 18 5 30.5t17 33.5q15 25 23.5 42.5t18 59.5t9.5 95q0 133 -105 188q-51 26 -103 26h-1q-52 0 -102 -26q-106 -55 -106 -188
q0 -53 9.5 -95t18 -59.5t23.5 -42.5q9 -15 12.5 -22t6.5 -18t3 -24q0 -4 -18 -16q-16 -9 -63 -30q-27 -12 -42 -19t-43.5 -22.5t-45 -28.5t-38.5 -35t-34 -44.5t-20.5 -53.5t-8.5 -65v-69q0 -16 11 -27t26.5 -11t27 11t11.5 27v69q0 24 6 46t14.5 38t25.5 32t29.5 25.5
t36 22t36.5 18.5t39 17q25 11 38 17.5t33 18t29.5 21.5t17.5 25.5t8 32.5q0 22 -5.5 42.5t-11 31.5t-16.5 29q-13 21 -20 35t-13.5 47t-6.5 76q0 86 62 120q34 18 70 19h1v0z" />
    <glyph glyph-name="add" unicode="&#xe635;" 
d="M512 828q90 0 172 -35.5t141.5 -95t95 -141.5t35.5 -172t-35.5 -172t-95 -141.5t-141.5 -95t-172 -35.5t-172 35.5t-141.5 95t-95 141.5t-35.5 172t35.5 172t95 141.5t141.5 95t172 35.5zM512 896q-139 0 -257 -68.5t-186.5 -186.5t-68.5 -257t68.5 -257t186.5 -186.5
t257 -68.5t257 68.5t186.5 186.5t68.5 257t-68.5 257t-186.5 186.5t-257 68.5v0zM171 418h682v-68h-682v68zM478 725h68v-682h-68v682z" />
    <glyph glyph-name="rightarrow" unicode="&#xe63e;" 
d="M640 768l384 -384l-384 -384l-92 92l292 292v0l-292 292z" />
    <glyph glyph-name="add1" unicode="&#xe651;" 
d="M1024 448h-448v448h-128v-448h-448v-128h448v-448h128v448h448v128z" />
    <glyph glyph-name="jubao" unicode="&#xe652;" horiz-adv-x="1127" 
d="M1108 71q21 -32 18.5 -67t-18 -64.5t-47.5 -48.5t-71 -19h-860q-36 0 -67 19t-46 48.5t-17 64.5t18 67l433 757q16 33 46.5 50.5t65.5 17.5t65.5 -17.5t47.5 -50.5l432 -757v0v0v0zM1020 19v1l-433 757l-3 5q-6 12 -21 12t-20 -12l-3 -5l-434 -758q-8 -14 0.5 -29.5
t23.5 -15.5h860q19 0 29 15.5t1 29.5v0v0v0zM558 589q-19 0 -32.5 -10.5t-13.5 -24.5v-237q0 -15 13.5 -25t32.5 -10h10q20 0 33 10t13 25v237q0 14 -13 24.5t-33 10.5h-10v0v0v0zM512 129q0 -21 15 -35.5t36 -14.5t36 14.5t15 35.5t-15 35.5t-36 14.5t-36 -14.5t-15 -35.5
v0v0v0z" />
    <glyph glyph-name="camera" unicode="&#xe675;" 
d="M512 507q-69 0 -118 -49t-49 -118t49 -118t118 -49t118 49t49 118t-49 118t-118 49v0zM913 633h-175q-5 15 -11.5 30.5t-17.5 36.5t-26.5 34t-31.5 13h-278q-15 0 -30 -13t-26.5 -34t-19 -36.5t-12.5 -30.5h-174q-25 0 -42.5 -18.5t-17.5 -44.5v-488q0 -26 17.5 -44.5
t42.5 -18.5h802q25 0 42 18.5t17 44.5v488q0 26 -17 44.5t-42 18.5v0zM512 130q-87 0 -148 61.5t-61 148t61 148t147.5 61.5t148 -61.5t61.5 -148t-61.5 -148t-147.5 -61.5v0zM812 507q-15 0 -25 10.5t-10 25t10 24.5t24.5 10t25 -10t10.5 -24.5t-10.5 -25t-24.5 -10.5v0z
M256 687q0 -9 -7 -16t-16 -7h-105q-9 0 -16 7t-7 16v0q0 9 7 16t16 7h105q9 0 16 -7t7 -16v0v0zM256 687z" />
    <glyph glyph-name="radiod" unicode="&#xe670;" 
d="M512 896q-139 0 -257 -68.5t-186.5 -186.5t-68.5 -257t68.5 -257t186.5 -186.5t257 -68.5t257 68.5t186.5 186.5t68.5 257t-68.5 257t-186.5 186.5t-257 68.5zM825 531l-351 -344q-3 -5 -7 -8l-16 -17q-17 -16 -24 -9l-167 175q-8 7 9 24l16 16q16 17 24 9l125 -131
l341 334q7 7 17 7t16 -7l17 -16q7 -7 7 -16.5t-7 -16.5z" />
    <glyph glyph-name="radio" unicode="&#xe671;" 
d="M512 834q91 0 174.5 -35.5t144 -96t96 -144t35.5 -174.5t-35.5 -174.5t-96 -144t-144 -96t-174.5 -35.5t-174.5 35.5t-144 96t-96 144t-35.5 174.5t35.5 174.5t96 144t144 96t174.5 35.5zM512 896q-139 0 -257 -68.5t-186.5 -186.5t-68.5 -257t68.5 -257t186.5 -186.5
t257 -68.5t257 68.5t186.5 186.5t68.5 257t-68.5 257t-186.5 186.5t-257 68.5v0z" />
    <glyph glyph-name="zhuanfa" unicode="&#xe609;" 
d="M956 323q-21 0 -35.5 -14.5t-14.5 -35.5v-257q0 -17 -12 -28.5t-28 -11.5h-723q-17 0 -29 11.5t-12 28.5v723q0 17 12 28.5t29 11.5h226q20 0 35 15t15 35.5t-15 35.5t-35 15h-226q-59 0 -100 -41.5t-41 -99.5v-723q0 -58 41 -99.5t100 -41.5h723q58 0 99 41.5t41 99.5
v257q0 21 -14.5 35.5t-35.5 14.5v0v0zM956 323zM448 162h4q20 0 34 13t16 32q3 36 15 89.5t30 88.5q12 23 19.5 36t25 38.5t33 42.5t40.5 39t52 36.5t63.5 27t77.5 18.5l9 3l-84 -177q-9 -18 -2 -38t25 -29q11 -5 22 -5q32 0 45 29l130 272q9 19 2 38.5t-25 28.5l-272 130
q-19 9 -38.5 2t-28.5 -26t-2 -38.5t25 -28.5l143 -68q-45 -9 -86.5 -26.5t-72 -36.5t-59 -45.5t-46.5 -46.5t-37 -48.5t-27 -43t-20 -37.5q-20 -37 -34.5 -93t-17.5 -81t-5 -42q-2 -20 11.5 -36t34.5 -18v0v0zM448 162z" />
    <glyph glyph-name="bidlose" unicode="&#xe69b;" 
d="M512 896q-139 0 -257 -68.5t-186.5 -186.5t-68.5 -257t68.5 -257t186.5 -186.5t257 -68.5t257 68.5t186.5 186.5t68.5 257t-68.5 257t-186.5 186.5t-257 68.5zM729 239l-72 -72l-145 145l-145 -145l-72 72l145 145l-145 145l72 72l145 -145l145 145l72 -72l-145 -145z
" />
    <glyph glyph-name="qiqiu" unicode="&#xe62a;" 
d="M249 752q-59 -37 -93.5 -101t-34.5 -138q0 -9 6.5 -15.5t15.5 -6.5t15.5 6.5t6.5 15.5q0 62 29 116.5t79 85.5q7 5 9 14t-2.5 16.5t-13.5 9.5t-17 -3v0zM608 449q-9 2 -17 -2t-11 -12q-23 -70 -78.5 -112.5t-122.5 -42.5q-9 0 -15.5 -6.5t-6.5 -15.5t6.5 -15.5t15.5 -6.5
q82 0 148.5 51t94.5 134q2 9 -2 17t-12 11v0zM891 535q-9 2 -16.5 -2.5t-9.5 -13.5q-11 -47 -40.5 -84.5t-71.5 -56.5q-8 -3 -11 -11.5t1 -16.5q6 -13 19 -13q6 0 10 2q50 23 86 68t49 102q2 9 -2.5 16.5t-13.5 9.5v0zM1000 543q0 91 -41.5 168t-113.5 122t-156 45
q-71 0 -134 -32q-82 50 -176 50q-96 0 -178 -51t-129.5 -139t-47.5 -192q0 -133 76.5 -236.5t193.5 -134.5l-21 -26q-8 -11 -2 -23q5 -12 19 -12h57q-8 -18 -9.5 -33t4 -27.5t10.5 -19.5t15 -18q15 -17 19 -26q8 -16 4 -26q-5 -13 -19 -18q-9 -3 -12.5 -11.5t0.5 -16.5
q5 -14 20 -14q4 0 8 1q4 2 10 5.5t17 14t16 23.5q11 29 -5 62q-7 14 -26 35q-12 13 -15.5 19.5t-1.5 18t15 29.5v0.5t1 1.5h39q14 0 20 11q6 12 -2 23l-16 22q94 17 168 83q10 -4 21 -6l-9 -10q-9 -11 -4 -23q6 -13 20 -13h32q-13 -27 -12.5 -51t7 -35.5t19.5 -28.5
q15 -20 19 -29q9 -18 4.5 -30.5t-9 -17.5t-10.5 -8q-8 -4 -11 -12t0 -16q6 -13 20 -13q4 0 9 2q23 10 39 39.5t-2 72.5q-7 16 -24 38q-12 15 -16 23t-2 23t15 36q2 2 2 7h25q14 0 20 12t-2 23l-9 11q108 23 179.5 115t71.5 213v0zM336 125l7 9q17 -2 36 -2h5.5h5.5l5 -7h-59
v0zM597 305l-2 -2q-9 -11 -19 -21q-81 -81 -189 -84h-1l-35 1h-4q-109 13 -183.5 103t-74.5 212q0 131 85 224t205 93q85 0 157 -51q29 -20 53 -48q1 -1 3 -3.5t3 -3.5q7 -9 15 -20q5 -8 7 -10q6 -10 14 -23q0 -2 1.5 -4t1.5 -3q7 -14 14 -31q0 -2 1.5 -6t1.5 -6
q5 -16 7 -23q1 -2 2 -6.5t1 -5.5q3 -13 5 -25l1 -11q2 -19 2 -37q0 -119 -72 -209v0zM689 274q-16 0 -32 2l1 1q27 38 45 80v0.5t1 0.5q3 8 9 25q0 1 1 4l1 3q2 6 7 23q1 3 2 12q3 13 5 20q1 5 2 18q1 7 2 16q2 16 2 35t-2 40q-1 2 -1.5 6.5t-0.5 6.5q-4 25 -4 26
q-1 3 -2 8.5t-2 7.5q-3 15 -5 22l-6 17q-5 12 -7 18q-1 3 -8 19q-1 1 -3.5 7t-4.5 9q-3 5 -10 17q-3 6 -9 15q-5 8 -11 16q-10 13 -12 15q-7 9 -11 14l-15 15q-1 1 -3 3.5t-3 3.5q36 13 74 13q102 0 174 -79t72 -190.5t-72 -190.5t-174 -79v0z" />
    <glyph glyph-name="huodong" unicode="&#xe629;" horiz-adv-x="1144" 
d="M598 592q0 -13 -9.5 -23t-23.5 -10t-23.5 10t-9.5 23q0 96 -67.5 163.5t-162.5 67.5t-162 -67.5t-67 -163.5q0 -99 41 -170q32 -55 118 -135l330 -308l330 308q87 81 118 135q42 71 42 170q0 96 -67 163.5t-162 67.5q-43 0 -82 -15t-70 -43q-11 -9 -24.5 -8t-22.5 11
t-8 24t11 23q41 36 91.5 55t104.5 19q122 0 208.5 -87t86.5 -210q0 -117 -51 -204q-36 -63 -130 -150l-352 -328l-23 -21l-22 21l-353 328q-93 87 -130 150q-50 87 -50 204q0 123 86.5 210t209 87t209 -87t86.5 -210v0v0z" />
    <glyph glyph-name="down" unicode="&#xe6d8;" 
d="M169 661l343 -342l343 342l105 -105l-448 -449l-448 449z" />
    <glyph glyph-name="ok" unicode="&#xe6da;" 
d="M349 187l-213 212l-72 -72l285 -285l611 612l-72 72z" />
    <glyph glyph-name="zhengque" unicode="&#xe6e0;" 
d="M925 558q-34 81 -96 143t-143 96q-83 35 -174 35t-174 -35q-81 -34 -143 -96t-96 -143q-35 -83 -35 -174t35 -174q34 -81 96 -143t143 -96q83 -35 174 -35t174 35q81 34 143 96t96 143q35 83 35 174t-35 174v0zM512 -2q-105 0 -194 51.5t-140.5 140.5t-51.5 194t51.5 194
t140.5 140.5t194 51.5t194 -51.5t140.5 -140.5t51.5 -194t-51.5 -194t-140.5 -140.5t-194 -51.5v0zM440 197q-11 0 -20 9l-116 115q-9 9 -9 20.5t8.5 20t20.5 8.5t20 -8l116 -116q9 -8 9 -20t-8.5 -20.5t-20.5 -8.5v0zM448 190q-12 0 -20.5 8.5t-8.5 20.5t9 20l252 250
q9 8 20.5 8t20 -8.5t8.5 -20t-9 -20.5l-252 -249q-9 -9 -20 -9v0z" />
    <glyph glyph-name="close" unicode="&#xe6e6;" 
d="M512 819q88 0 169 -34.5t139 -92.5t92.5 -139t34.5 -169t-34.5 -169t-92.5 -139t-139 -92.5t-169 -34.5t-169 34.5t-139 92.5t-92.5 139t-34.5 169t34.5 169t92.5 139t139 92.5t169 34.5zM512 896q-139 0 -257 -68.5t-186.5 -186.5t-68.5 -257t68.5 -257t186.5 -186.5
t257 -68.5t257 68.5t186.5 186.5t68.5 257t-68.5 257t-186.5 186.5t-257 68.5zM765 583l-54 54l-199 -199l-199 199l-54 -54l199 -199l-199 -199l54 -54l199 199l199 -199l54 54l-199 199z" />
    <glyph glyph-name="hold" unicode="&#xe6e7;" 
d="M781 294q-3 0 -8.5 -0.5t-6.5 -0.5q-19 11 -39 19q-45 20 -62 30q-18 12 -18 16q0 18 4.5 30.5t17.5 32.5q15 25 23.5 42.5t18 60t9.5 94.5q0 133 -106 188q-20 10 -50 17.5t-52 8.5q-23 -1 -53 -8.5t-50 -17.5q-105 -55 -105 -188q0 -52 9 -94.5t17.5 -60t23.5 -42.5
q9 -14 12.5 -21t6.5 -18t3 -24q0 -4 -18 -16q-16 -9 -62 -30q-28 -11 -43 -18.5t-43 -22.5t-45 -28.5t-38.5 -35t-33.5 -44t-20.5 -53.5t-8.5 -66v-68q0 -16 11 -27t26.5 -11t26.5 11t11 27v68q0 25 6.5 46.5t15 37.5t25 32t29.5 26t36 22t36.5 18t38.5 18q26 11 39 17
t32.5 17.5t29.5 22t17.5 25.5t7.5 32q0 22 -5.5 42.5t-11 31.5t-16.5 29q-13 21 -20 35t-13.5 46.5t-6.5 75.5q0 86 63 120q32 17 69 19q38 -2 71 -19q62 -34 62 -120q0 -43 -6.5 -75.5t-13 -46.5t-20.5 -36q-10 -17 -15.5 -28t-11.5 -31.5t-6 -42.5q0 -35 25.5 -58
t73.5 -45q-28 -22 -48 -63t-20 -77q0 -74 52.5 -126.5t126.5 -52.5t126.5 52.5t52.5 126.5t-52.5 126.5t-126.5 52.5zM646 115q0 56 39.5 95.5t95.5 39.5q19 0 44 -9t40 -21l-189 -189q-12 15 -21 39.5t-9 44.5v0zM781 -19q-39 0 -71 20l185 185q20 -32 20 -71
q0 -55 -39.5 -94.5t-94.5 -39.5z" />
    <glyph glyph-name="logo" unicode="&#xe6e8;" 
d="M512 -60l-9 8q-9 7 -27 19.5t-78 41.5t-127 48q-41 11 -90.5 41t-78 61t-55 82.5t-34.5 92.5q-40 198 42 357v1q3 5 9 13.5t24 28.5t38 36.5t52.5 32t66.5 21.5q127 22 267 -89q140 111 267 89q35 -6 67 -22t52 -32t38 -36t24 -28t9 -14l1 -1q81 -159 41 -357
q-8 -41 -34.5 -92.5t-55 -82.5t-78 -61t-90.5 -41q-142 -40 -232 -110zM79 678q-76 -150 -39 -338q17 -84 86.5 -159t151.5 -97q143 -41 234 -108q92 67 234 108q82 22 152 97t86 159q38 188 -39 338q-3 6 -9 14t-22.5 25.5t-34.5 32t-46.5 28.5t-58.5 19q-118 21 -253 -90
l-9 -8l-9 8q-134 111 -253 90q-30 -5 -58.5 -19t-46.5 -28.5t-34.5 -32.5t-22 -25.5t-9.5 -13.5zM271 418q31 -27 31 -67v-118q0 -61 -57 -81q-13 -3 -23 -3q-39 0 -66 40q-10 22 -10 47v3h29v-15q0 -23 25 -40q11 -5 23 -5v0h4q27 0 43 30q3 9 3 18v130q0 24 -26 41
q-9 5 -19 6h-15v29q42 0 57 31q3 8 3 16v1v128q0 32 -32 46q-8 3 -18 3q-26 0 -41 -24q-7 -13 -7 -36h-29q0 55 43 81q17 8 31 8h6q51 -1 73 -51q3 -12 3 -21v-134q0 -42 -31 -63zM599 687h8q37 0 63 -37q12 -20 12 -40q0 -14 -12 -49l-111 -382h119v-30h-158l132 456v7
q0 28 -31 43q-10 3 -20 3q-23 0 -39 -23q-7 -10 -7 -22v-15h-30q0 53 42 81q20 8 32 8zM457 654.5q-2 2.5 -7 1.5q-1 0 -2.5 -0.5t-3.5 -1t-3 -1.5v1q0 26 8 51q1 5 -3 7q-16 8 -34 8q-5 0 -10 -1q-14 -1 -26 -8q-2 -1 -1 -4q7 -20 8 -54l-4 1.5t-6 1.5q-4 1 -6 -1.5t0 -7.5
l6 -6q17 -15 39 -15q14 0 26 6q11 5 18 15q3 5 1 7.5zM432 644q-10 -4 -20 -4q-12 0 -24 5q-3 2 -3 5v5q27 -13 53 -1v0h1v-4q0 -4 -4 -5q-2 -1 -3 -1zM487 633q-2 6 -6 11l-19 -53v-1h-1l-49 -132l50 67v-294l-2 -12q-8 -39 -47 -40h-1q-10 0 -19 3q-30 14 -30 51v291
l49 -66l-49 132l-21 54q-8 -18 -8 -51v-353q0 -27 7 -44q26 -47 70 -47q12 0 25 4q49 14 54 72v386zM384 615v-32l28 16zM440 615l-28 -16l28 -16v32zM420 599q0 -8 -8 -8t-8 8t8 8t8 -8zM419 561.5q0 -7.5 -7.5 -7.5t-7.5 7.5t7.5 7.5t7.5 -7.5zM419 533.5
q0 -7.5 -7.5 -7.5t-7.5 7.5t7.5 7.5t7.5 -7.5zM419 505.5q0 -7.5 -7.5 -7.5t-7.5 7.5t7.5 7.5t7.5 -7.5zM878 657l-55 44l18 22q2 4 7 4q3 0 5 -2l41 -34q7 -6 1 -13zM885 644l-77 62q0 1 -0.5 1t-0.5 -1l-5 -6q-1 0 -1 -0.5t1 -1.5l14 -11h-106v-283h77q8 0 16 -4
q34 -13 34 -46v-127q0 -9 -4 -18q-15 -31 -45 -31q-9 0 -18 3q-32 15 -32 57h-28q0 -29 8 -46q26 -43 65 -43h6q16 0 34 8q42 27 43 70v128q0 15 -5 28q-22 50 -82 50h-41v224h114l27 -21q0 -1 0.5 -1t1.5 1l5 6v0.5t-1 1.5zM594 210q-13 -15 -27 -20q-3 -5 3 -6h40
q10 -1 12 20q11 74 36 93q-2 -95 2 -112h5q-7 85 5 114q9 22 7 34t-17 18q-3 0 -4 -5l-3 -15l-46 -120q-1 -1 -2 -2.5t-4.5 -3t-6.5 4.5v0z" />
    <glyph glyph-name="message" unicode="&#xe6ea;" 
d="M607 70h-38q-9 0 -9 -9q-1 -19 -15 -32t-33 -13t-33 13t-15 32q0 9 -9 9h-38q-9 0 -9 -9q0 -42 31 -73t73 -31t73 31t31 73v0q0 9 -9 9v0zM901 118q0 6 -2 11q-6 39 -33 83t-60 67v162q0 84 -56 164.5t-135 110.5q-3 39 -33.5 66.5t-69.5 28.5q-40 0 -70 -27.5t-33 -67.5
q-79 -30 -135 -110.5t-56 -164.5v-162q-33 -23 -60 -67t-33 -83q-2 -5 -2 -11q0 -2 1 -5q-1 -6 -1 -13v-1q0 -9 9 -9h760q9 0 9 9q0 7 -1 14q1 4 1 5zM567 672q19 -4 36 -12q60 -25 103 -89.5t44 -129.5v-189q0 -5 5 -8q62 -31 83 -98h-652q9 28 33 56.5t50 41.5q5 2 5 8v0
v189q1 77 54.5 145t128.5 86q7 2 7 9v26q0 19 14.5 33t33.5 14t33.5 -14t14.5 -33v-26v0q0 -7 7 -9zM567 672z" />
  </font>
</defs>
</svg>
